<svg width="18" height="18" viewBox="0 0 18 18" fill="none" xmlns="http://www.w3.org/2000/svg">
<path fill-rule="evenodd" clip-rule="evenodd" d="M0.263604 0.263833C0.615076 -0.0876391 1.18492 -0.0876391 1.5364 0.263833L9 7.72744L16.4636 0.263833C16.8151 -0.0876391 17.3849 -0.0876391 17.7364 0.263833C18.0879 0.615305 18.0879 1.18515 17.7364 1.53663L10.2728 9.00023L17.7364 16.4638C18.0879 16.8153 18.0879 17.3852 17.7364 17.7366C17.3849 18.0881 16.8151 18.0881 16.4636 17.7366L9 10.273L1.5364 17.7366C1.18492 18.0881 0.615076 18.0881 0.263604 17.7366C-0.087868 17.3852 -0.087868 16.8153 0.263604 16.4638L7.72721 9.00023L0.263604 1.53663C-0.087868 1.18515 -0.087868 0.615305 0.263604 0.263833Z" fill="white"/>
</svg>
