<svg width="24" height="24" viewBox="0 0 24 24" fill="none" xmlns="http://www.w3.org/2000/svg">
<path fill-rule="evenodd" clip-rule="evenodd" d="M6.13953 0.000373032C6.75604 0.000373032 7.25581 0.413646 7.25581 0.923444V5.5388C7.25581 6.0486 6.75604 6.46187 6.13953 6.46187C5.52303 6.46187 5.02326 6.0486 5.02326 5.5388V0.923444C5.02326 0.413646 5.52303 0.000373032 6.13953 0.000373032Z" fill="white"/>
<path fill-rule="evenodd" clip-rule="evenodd" d="M6.13953 9.69262C6.75604 9.69262 7.25581 10.1059 7.25581 10.6157V23.0772C7.25581 23.587 6.75604 24.0002 6.13953 24.0002C5.52303 24.0002 5.02326 23.587 5.02326 23.0772V10.6157C5.02326 10.1059 5.52303 9.69262 6.13953 9.69262Z" fill="white"/>
<path fill-rule="evenodd" clip-rule="evenodd" d="M2.41607 0.0129323C3.02419 0.0967426 3.435 0.572334 3.33365 1.0752L2.23352 6.53351C2.25578 7.36441 2.66463 8.15738 3.37689 8.74636C4.10959 9.35224 5.10334 9.69262 6.13953 9.69262C7.17573 9.69262 8.16948 9.35224 8.90218 8.74636C9.61444 8.15738 10.0233 7.36441 10.0456 6.53351L8.94542 1.0752C8.84407 0.572334 9.25488 0.0967426 9.863 0.0129323C10.4711 -0.070878 11.0463 0.26883 11.1476 0.771692L12.2639 6.31012C12.274 6.36027 12.2791 6.41103 12.2791 6.46187C12.2791 7.80835 11.6322 9.09968 10.4808 10.0518C9.32946 11.0039 7.76784 11.5388 6.13953 11.5388C4.51123 11.5388 2.94961 11.0039 1.79823 10.0518C0.646842 9.09968 0 7.80835 0 6.46187C0 6.41103 0.00507998 6.36027 0.0151882 6.31012L1.13147 0.771692C1.23282 0.26883 1.80796 -0.070878 2.41607 0.0129323Z" fill="white"/>
<path fill-rule="evenodd" clip-rule="evenodd" d="M23.5241 0.167387C23.8224 0.340137 24 0.622327 24 0.923444V23.0772C24 23.587 23.5002 24.0002 22.8837 24.0002C22.2672 24.0002 21.7674 23.587 21.7674 23.0772V16.6157H15.0698C14.753 16.6157 14.4512 16.5044 14.2395 16.3095C14.0277 16.1147 13.9261 15.8547 13.9598 15.5942L15.0698 15.6926C13.9598 15.5942 13.9598 15.5945 13.9598 15.5942L13.9603 15.5905L13.9614 15.5822L13.9656 15.5516C13.9692 15.5252 13.9745 15.4869 13.9817 15.4373C13.996 15.3382 14.0177 15.1942 14.0473 15.0112C14.1065 14.6454 14.1978 14.1229 14.3266 13.4911C14.5838 12.2295 14.993 10.5216 15.6004 8.74869C16.2055 6.98267 17.0201 5.11396 18.1044 3.55073C19.1744 2.00799 20.6 0.627946 22.5022 0.055948C22.8445 -0.0469568 23.2259 -0.00536352 23.5241 0.167387ZM16.3427 14.7695H21.7674V2.5856C21.16 3.05446 20.5826 3.68839 20.041 4.4692C19.0845 5.84826 18.3294 7.55645 17.7484 9.25195C17.1698 10.9406 16.7767 12.5788 16.5281 13.798C16.4535 14.1639 16.3921 14.4911 16.3427 14.7695Z" fill="white"/>
</svg>
