<svg width="24" height="18" viewBox="0 0 24 18" fill="none" xmlns="http://www.w3.org/2000/svg">
<path fill-rule="evenodd" clip-rule="evenodd" d="M0 1.00023C0 0.447944 0.447715 0.000228882 1 0.000228882H23C23.5523 0.000228882 24 0.447944 24 1.00023C24 1.55251 23.5523 2.00023 23 2.00023H1C0.447715 2.00023 0 1.55251 0 1.00023ZM0 9.00023C0 8.44794 0.447715 8.00023 1 8.00023H23C23.5523 8.00023 24 8.44794 24 9.00023C24 9.55251 23.5523 10.0002 23 10.0002H1C0.447715 10.0002 0 9.55251 0 9.00023ZM0 17.0002C0 16.4479 0.447715 16.0002 1 16.0002H23C23.5523 16.0002 24 16.4479 24 17.0002C24 17.5525 23.5523 18.0002 23 18.0002H1C0.447715 18.0002 0 17.5525 0 17.0002Z" fill="white"/>
</svg>
