<svg width="300" height="327" viewBox="0 0 300 327" fill="none" xmlns="http://www.w3.org/2000/svg">
<path d="M288.885 183.145H54.9508C53.5192 183.153 52.1298 183.631 50.9959 184.505C49.862 185.379 49.0464 186.601 48.6742 187.983L22.5216 281.478L13.1067 120.51C13.0585 120.033 13.1155 119.552 13.2736 119.1C13.4318 118.648 13.6873 118.237 14.0221 117.894C14.3629 117.55 14.7709 117.279 15.2209 117.099C15.6708 116.919 16.153 116.834 16.6373 116.848H64.758C66.0259 116.853 67.2755 117.151 68.4095 117.718C69.5435 118.285 70.5314 119.106 71.2961 120.117L87.2492 140.647C87.8514 141.425 88.6247 142.054 89.5091 142.484C90.3935 142.915 91.3652 143.137 92.3489 143.132H234.749V162.746C234.749 164.48 235.438 166.143 236.664 167.369C237.891 168.595 239.554 169.284 241.288 169.284C243.022 169.284 244.685 168.595 245.911 167.369C247.137 166.143 247.826 164.48 247.826 162.746V136.593C247.843 135.724 247.687 134.86 247.366 134.051C247.045 133.243 246.566 132.507 245.958 131.886C245.349 131.264 244.622 130.771 243.82 130.434C243.018 130.098 242.157 129.924 241.288 129.925H94.8334L80.9725 112.01C79.0332 109.528 76.5801 107.495 73.7813 106.051C70.9825 104.606 67.9043 103.784 64.758 103.641H16.6373C14.3554 103.68 12.1041 104.174 10.0157 105.094C7.92737 106.015 6.04405 107.344 4.47639 109.003C2.93602 110.64 1.74696 112.575 0.982364 114.689C0.217772 116.802 -0.106169 119.05 0.0304663 121.294L12.4529 320.446C12.6199 321.828 13.0647 323.162 13.7605 324.369C14.3623 325.188 15.1505 325.853 16.06 326.308C16.9696 326.763 17.9742 326.994 18.9911 326.984H240.111C245.662 326.98 251.054 325.127 255.435 321.717C259.816 318.307 262.936 313.535 264.302 308.154L273.978 270.364C274.201 269.505 274.253 268.611 274.131 267.732C274.009 266.854 273.715 266.008 273.265 265.243C272.816 264.478 272.22 263.809 271.513 263.274C270.805 262.739 269.999 262.349 269.14 262.126C268.281 261.902 267.387 261.85 266.509 261.973C265.63 262.095 264.784 262.389 264.019 262.839C263.254 263.288 262.585 263.883 262.05 264.591C261.515 265.299 261.125 266.105 260.902 266.964L250.964 304.885C250.258 307.444 248.744 309.706 246.646 311.332C244.548 312.958 241.98 313.862 239.326 313.908H27.6214L59.9198 196.221H280.386L271.494 229.958C271.06 231.692 271.333 233.527 272.253 235.06C273.173 236.593 274.663 237.697 276.397 238.131C278.131 238.564 279.967 238.291 281.499 237.371C283.032 236.452 284.137 234.961 284.57 233.227L295.554 191.252C295.814 190.286 295.849 189.273 295.656 188.292C295.463 187.31 295.048 186.386 294.441 185.59C293.835 184.794 293.054 184.148 292.159 183.701C291.264 183.255 290.278 183.02 289.277 183.014L288.885 183.145Z" fill="#4D585E"/>
<path d="M145.178 276.379C144.565 276.986 144.078 277.71 143.746 278.506C143.415 279.303 143.244 280.158 143.244 281.021C143.244 281.884 143.415 282.738 143.746 283.535C144.078 284.332 144.565 285.055 145.178 285.663C145.765 286.288 146.474 286.787 147.261 287.127C148.048 287.468 148.897 287.644 149.754 287.644C150.612 287.644 151.461 287.468 152.248 287.127C153.035 286.787 153.744 286.288 154.331 285.663C156.587 283.411 159.643 282.146 162.831 282.146C166.018 282.146 169.075 283.411 171.33 285.663C171.917 286.288 172.626 286.787 173.413 287.127C174.2 287.468 175.049 287.644 175.907 287.644C176.765 287.644 177.613 287.468 178.4 287.127C179.188 286.787 179.897 286.288 180.484 285.663C181.096 285.055 181.583 284.332 181.915 283.535C182.247 282.738 182.418 281.884 182.418 281.021C182.418 280.158 182.247 279.303 181.915 278.506C181.583 277.71 181.096 276.986 180.484 276.379C178.173 274.046 175.424 272.194 172.394 270.931C169.364 269.667 166.114 269.016 162.831 269.016C159.548 269.016 156.297 269.667 153.267 270.931C150.237 272.194 147.488 274.046 145.178 276.379Z" fill="#4D585E"/>
<path d="M110.524 235.449C108.79 235.449 107.127 236.138 105.901 237.364C104.675 238.591 103.986 240.254 103.986 241.988C103.986 243.722 104.675 245.385 105.901 246.611C107.127 247.837 108.79 248.526 110.524 248.526H123.6C125.335 248.526 126.998 247.837 128.224 246.611C129.45 245.385 130.139 243.722 130.139 241.988C130.139 240.254 129.45 238.591 128.224 237.364C126.998 236.138 125.335 235.449 123.6 235.449H110.524Z" fill="#4D585E"/>
<path d="M202.058 235.449C200.324 235.449 198.661 236.138 197.435 237.364C196.209 238.591 195.52 240.254 195.52 241.988C195.52 243.722 196.209 245.385 197.435 246.611C198.661 247.837 200.324 248.526 202.058 248.526H215.134C216.868 248.526 218.531 247.837 219.757 246.611C220.983 245.385 221.672 243.722 221.672 241.988C221.672 240.254 220.983 238.591 219.757 237.364C218.531 236.138 216.868 235.449 215.134 235.449H202.058Z" fill="#4D585E"/>
<path d="M143.215 108.609C142.962 109.85 143.047 111.135 143.461 112.332C143.875 113.528 144.603 114.591 145.569 115.409C146.724 116.323 148.15 116.829 149.623 116.848C150.572 117.045 151.551 117.045 152.5 116.848L187.544 99.1946C198.547 102.633 210.015 104.353 221.542 104.294C265.479 104.294 300 81.2801 300 51.9892C300 27.7981 276.855 7.52993 242.334 1.25332C240.6 0.941195 238.813 1.33069 237.366 2.33613C235.919 3.34156 234.931 4.88057 234.619 6.61459C234.306 8.34861 234.696 10.1356 235.701 11.5824C236.707 13.0293 238.246 14.0175 239.98 14.3296C267.701 18.3832 287.054 33.944 287.054 51.2047C287.054 72.519 257.11 90.4335 221.673 90.4335C210.65 90.4722 199.696 88.7053 189.244 85.203C188.463 84.849 187.616 84.6659 186.759 84.6659C185.902 84.6659 185.055 84.849 184.275 85.203L159.561 98.2792L165.184 75.3958C165.448 74.3724 165.455 73.2996 165.204 72.2729C164.953 71.2462 164.452 70.2975 163.745 69.5114C159.064 64.5528 156.405 58.0231 156.292 51.2047C156.292 33.6825 176.691 17.7294 204.674 13.1527C206.402 12.8636 207.947 11.9059 208.975 10.4866C210.003 9.06738 210.43 7.30068 210.166 5.56849C209.877 3.84024 208.919 2.29523 207.5 1.2675C206.081 0.239781 204.314 -0.188072 202.582 0.0764558C167.668 5.83001 143.215 26.229 143.215 51.0739C143.317 59.7722 146.307 68.1899 151.715 75.0035L143.215 108.609Z" fill="#4D585E"/>
<path d="M207.29 45.9746L212.39 51.2051L207.29 56.3048C206.044 57.5548 205.345 59.2476 205.345 61.0123C205.345 62.777 206.044 64.4697 207.29 65.7197C208.528 66.8875 210.165 67.538 211.867 67.538C213.568 67.538 215.206 66.8875 216.443 65.7197L221.674 60.4892L226.904 65.7197C228.142 66.8875 229.779 67.538 231.481 67.538C233.183 67.538 234.82 66.8875 236.058 65.7197C237.303 64.4697 238.003 62.777 238.003 61.0123C238.003 59.2476 237.303 57.5548 236.058 56.3048L230.958 51.2051L236.058 45.9746C236.67 45.3668 237.157 44.6436 237.489 43.8469C237.821 43.0502 237.992 42.1956 237.992 41.3325C237.992 40.4694 237.821 39.6148 237.489 38.8181C237.157 38.0213 236.67 37.2982 236.058 36.6904C235.471 36.065 234.762 35.5665 233.975 35.2257C233.187 34.8849 232.339 34.7091 231.481 34.7091C230.623 34.7091 229.775 34.8849 228.987 35.2257C228.2 35.5665 227.491 36.065 226.904 36.6904L221.674 41.9209L216.443 36.6904C215.856 36.065 215.147 35.5665 214.36 35.2257C213.573 34.8849 212.724 34.7091 211.867 34.7091C211.009 34.7091 210.16 34.8849 209.373 35.2257C208.586 35.5665 207.877 36.065 207.29 36.6904C206.677 37.2982 206.191 38.0213 205.859 38.8181C205.527 39.6148 205.356 40.4694 205.356 41.3325C205.356 42.1956 205.527 43.0502 205.859 43.8469C206.191 44.6436 206.677 45.3668 207.29 45.9746Z" fill="#4D585E"/>
</svg>
